<?xml version="1.0" standalone="no"?>
<!DOCTYPE svg PUBLIC "-//W3C//DTD SVG 20010904//EN"
 "http://www.w3.org/TR/2001/REC-SVG-20010904/DTD/svg10.dtd">
<svg version="1.0" xmlns="http://www.w3.org/2000/svg"
 width="260.000000pt" height="260.000000pt" viewBox="0 0 260.000000 260.000000"
 preserveAspectRatio="xMidYMid meet">
<metadata>
Created by potrace 1.14, written by Peter Selinger 2001-2017
</metadata>
<g transform="translate(0.000000,260.000000) scale(0.100000,-0.100000)"
fill="#000000" stroke="none">
<path d="M90 1465 l0 -345 168 0 c141 1 164 3 150 14 -10 7 -46 16 -79 20
-138 14 -221 114 -206 248 14 119 102 198 222 198 22 0 49 6 60 13 16 13 15
14 -21 20 -83 14 -168 -16 -222 -78 l-32 -36 0 146 c0 138 -1 145 -20 145 -20
0 -20 -7 -20 -345z"/>
<path d="M2435 1408 l0 -268 28 0 27 0 0 268 0 267 -28 1 -27 1 0 -269z"/>
<path d="M498 1627 c-113 -32 -177 -110 -186 -225 -7 -99 10 -148 71 -207 61
-59 105 -75 203 -75 107 1 184 42 225 122 24 47 24 58 -1 58 -13 0 -24 -10
-31 -27 -38 -101 -197 -150 -306 -95 -153 79 -163 303 -15 389 40 24 58 28
123 28 67 0 81 -4 124 -30 27 -17 55 -44 64 -62 11 -22 23 -33 39 -33 22 0 22
1 7 37 -21 51 -40 69 -99 98 -63 31 -154 40 -218 22z"/>
<path d="M915 1385 l0 -245 124 0 c68 0 141 5 162 12 49 14 114 69 139 117
l19 36 1 -31 c0 -35 32 -88 72 -117 57 -42 208 -26 221 23 6 25 5 25 -35 0
-39 -23 -98 -26 -137 -5 -31 16 -61 69 -61 109 l0 26 125 0 125 0 0 30 c0 86
-58 140 -150 140 -66 0 -111 -24 -137 -72 l-17 -33 -7 61 c-7 72 -32 120 -78
151 -52 35 -95 43 -236 43 l-130 0 0 -245z m296 189 c52 -30 79 -92 79 -184
-1 -160 -81 -236 -243 -228 l-62 3 -3 212 c-3 244 -14 223 114 219 58 -2 90
-8 115 -22z m368 -138 c12 -13 24 -39 28 -58 l5 -36 -58 -6 c-33 -3 -75 -2
-96 2 l-36 7 13 40 c8 22 24 48 36 58 31 25 81 22 108 -7z"/>
<path d="M501 1561 c-12 -8 -10 -15 12 -40 57 -69 59 -213 2 -287 -31 -40 -31
-44 -2 -44 18 0 31 12 53 53 25 45 29 62 29 132 0 71 -3 86 -31 134 -33 59
-41 66 -63 52z"/>
<path d="M2024 1558 c-18 -8 -21 -16 -17 -49 5 -37 4 -39 -21 -39 -16 0 -26
-5 -26 -15 0 -9 9 -15 25 -15 l26 0 -3 -136 c-4 -173 -4 -173 140 -173 79 0
103 4 131 20 31 18 35 19 43 5 6 -10 23 -16 48 -16 42 0 54 14 20 23 -19 5
-20 14 -20 122 0 128 -10 163 -55 183 -36 17 -110 15 -145 -3 -17 -9 -30 -11
-30 -5 0 5 -19 10 -41 10 l-42 0 7 50 c7 54 2 59 -40 38z m267 -129 c14 -14
19 -30 17 -57 l-3 -37 -75 -18 c-93 -23 -120 -45 -120 -102 0 -22 5 -46 12
-53 19 -19 -22 -15 -44 5 -16 14 -18 33 -18 145 l0 128 40 0 c30 0 40 -4 40
-16 0 -13 5 -12 26 5 36 28 97 28 125 0z m19 -173 c0 -47 -4 -57 -26 -75 -51
-40 -115 -20 -116 37 -1 40 23 68 70 80 70 19 72 18 72 -42z"/>
<path d="M1680 1308 l0 -168 29 0 29 0 -5 93 c-6 103 6 164 37 192 29 26 85
25 113 -3 20 -21 22 -32 22 -152 l0 -130 27 0 26 0 4 113 c4 136 -3 175 -37
205 -38 32 -113 31 -153 -3 -37 -31 -44 -31 -40 -3 2 17 -2 21 -24 22 l-28 2
0 -168z"/>
<path d="M80 1020 c0 -7 410 -10 1210 -10 800 0 1210 3 1210 10 0 7 -410 10
-1210 10 -800 0 -1210 -3 -1210 -10z"/>
<path d="M203 890 c0 -41 2 -58 4 -37 2 20 2 54 0 75 -2 20 -4 3 -4 -38z"/>
<path d="M763 890 c0 -41 2 -58 4 -37 2 20 2 54 0 75 -2 20 -4 3 -4 -38z"/>
<path d="M1570 936 c0 -19 -4 -23 -19 -19 -25 6 -53 -34 -44 -65 6 -23 9 -24
56 -26 27 -2 27 -1 27 66 0 39 -4 68 -10 68 -5 0 -10 -11 -10 -24z m-2 -68
c-3 -36 -24 -44 -41 -17 -14 23 -2 49 23 49 18 0 21 -5 18 -32z"/>
<path d="M102 888 c3 -63 3 -63 36 -66 18 -2 32 1 32 7 0 6 -11 11 -25 11 -18
0 -25 5 -25 20 0 15 7 20 25 20 14 0 25 5 25 10 0 6 -11 10 -25 10 -37 0 -35
37 3 43 21 3 19 4 -11 6 l-38 1 3 -62z"/>
<path d="M1010 939 c0 -5 5 -7 10 -4 6 3 10 8 10 11 0 2 -4 4 -10 4 -5 0 -10
-5 -10 -11z"/>
<path d="M1340 939 c0 -5 5 -7 10 -4 6 3 10 8 10 11 0 2 -4 4 -10 4 -5 0 -10
-5 -10 -11z"/>
<path d="M2300 939 c0 -5 5 -7 10 -4 6 3 10 8 10 11 0 2 -4 4 -10 4 -5 0 -10
-5 -10 -11z"/>
<path d="M1753 926 c-6 -10 -9 -26 -7 -35 12 -62 16 -71 31 -71 13 0 14 3 5
12 -16 16 -15 68 1 68 8 0 9 3 1 8 -6 4 -13 14 -16 22 -4 12 -6 11 -15 -4z"/>
<path d="M437 922 c-3 -4 -2 -27 2 -52 5 -34 11 -45 26 -48 18 -2 18 -2 3 8
-23 14 -24 67 -3 72 13 2 12 5 -4 15 -11 7 -22 9 -24 5z"/>
<path d="M284 908 c-5 -7 -2 -9 9 -5 8 3 21 -1 27 -9 10 -11 9 -14 -8 -14 -25
0 -46 -25 -38 -45 3 -10 16 -15 36 -13 28 2 30 5 30 44 0 29 -5 44 -16 48 -23
9 -32 7 -40 -6z m46 -47 c0 -12 -29 -35 -36 -28 -11 10 5 37 21 37 8 0 15 -4
15 -9z"/>
<path d="M395 911 c-3 -6 -11 -9 -16 -6 -5 4 -9 -14 -8 -42 l1 -48 8 39 c4 21
13 42 21 46 7 5 11 12 7 15 -3 4 -9 1 -13 -4z"/>
<path d="M508 909 c-21 -12 -24 -59 -6 -77 14 -14 58 -16 58 -4 0 5 -10 8 -22
8 -14 -1 -24 6 -26 17 -3 13 3 17 27 17 34 0 39 11 15 34 -18 19 -23 19 -46 5z
m40 -17 c2 -7 -6 -12 -17 -12 -21 0 -27 11 -14 24 9 9 26 2 31 -12z"/>
<path d="M804 908 c-5 -7 -2 -9 9 -5 8 3 21 -1 27 -9 10 -11 9 -14 -8 -14 -25
0 -46 -25 -38 -45 3 -10 16 -15 36 -13 28 2 30 5 30 44 0 29 -5 44 -16 48 -23
9 -32 7 -40 -6z m46 -47 c0 -12 -29 -35 -36 -28 -11 10 5 37 21 37 8 0 15 -4
15 -9z"/>
<path d="M942 904 c-26 -18 -28 -46 -6 -68 17 -17 54 -22 54 -7 0 5 -7 8 -16
7 -21 -1 -39 27 -31 48 4 9 16 16 27 16 12 0 18 5 15 10 -8 14 -17 13 -43 -6z"/>
<path d="M1068 909 c-21 -12 -24 -59 -6 -77 14 -14 58 -16 58 -2 0 5 -7 7 -15
4 -18 -7 -47 14 -39 27 3 5 18 9 35 9 32 0 37 11 13 34 -18 19 -23 19 -46 5z
m40 -17 c2 -7 -6 -12 -17 -12 -21 0 -27 11 -14 24 9 9 26 2 31 -12z"/>
<path d="M1168 913 c-14 -3 -18 -14 -17 -51 1 -26 3 -38 6 -27 2 11 6 30 9 43
3 14 12 22 24 22 17 0 20 -7 20 -40 0 -22 5 -40 10 -40 13 0 13 56 0 81 -11
19 -19 21 -52 12z"/>
<path d="M1268 909 c-21 -12 -24 -59 -6 -77 15 -15 45 -15 54 0 4 6 3 8 -4 5
-14 -9 -39 1 -46 19 -9 24 5 44 31 44 13 0 21 4 18 10 -8 13 -25 12 -47 -1z"/>
<path d="M1390 909 c-13 -9 -13 -10 0 -8 27 3 40 -1 40 -11 0 -5 -8 -10 -19
-10 -10 0 -24 -7 -31 -15 -18 -22 5 -46 39 -42 23 4 26 8 25 42 -2 47 -24 65
-54 44z m40 -53 c0 -20 -19 -31 -32 -18 -6 6 -7 15 -4 21 10 16 36 13 36 -3z"/>
<path d="M1626 904 c-22 -21 -20 -61 3 -74 25 -13 51 -13 51 1 0 5 -4 8 -9 5
-14 -9 -41 4 -41 20 0 9 11 14 30 14 31 0 39 17 18 38 -16 16 -33 15 -52 -4z
m42 -12 c2 -7 -6 -12 -17 -12 -21 0 -27 11 -14 24 9 9 26 2 31 -12z"/>
<path d="M1963 913 c-20 -7 -15 -30 8 -47 22 -15 17 -41 -7 -32 -8 3 -14 1
-14 -4 0 -16 36 -11 51 6 11 14 10 19 -10 35 -22 18 -21 46 1 33 7 -4 8 -2 4
4 -8 13 -13 14 -33 5z"/>
<path d="M2035 900 c-36 -40 7 -96 55 -70 24 13 26 52 4 74 -21 21 -37 20 -59
-4z m55 -30 c0 -32 -11 -43 -34 -34 -18 7 -21 45 -5 61 18 18 39 3 39 -27z"/>
<path d="M2153 913 c-20 -4 -23 -11 -23 -49 0 -24 5 -44 10 -44 6 0 10 18 10
40 0 33 3 40 20 40 17 0 20 -7 20 -40 0 -22 5 -40 10 -40 14 0 12 74 -2 88 -7
7 -14 11 -17 11 -4 -1 -16 -4 -28 -6z"/>
<path d="M2265 911 c-3 -6 -11 -9 -16 -6 -5 4 -8 -14 -7 -42 1 -40 2 -42 5
-13 2 19 11 41 20 47 9 7 14 15 11 19 -3 3 -9 0 -13 -5z"/>
<path d="M2353 913 c-20 -8 -15 -41 8 -48 23 -8 20 -31 -5 -29 -9 1 -16 -3
-16 -8 0 -5 10 -8 22 -6 30 4 35 36 9 55 -24 16 -19 36 6 26 11 -4 14 -3 9 5
-8 13 -13 14 -33 5z"/>
<path d="M2425 909 c-4 -6 0 -9 10 -7 29 5 28 -19 0 -26 -20 -5 -26 -12 -23
-29 2 -17 10 -22 36 -22 30 -1 32 1 32 35 0 49 -36 81 -55 49z m35 -53 c0 -20
-19 -31 -32 -18 -6 6 -7 15 -4 21 10 16 36 13 36 -3z"/>
<path d="M625 893 c28 -69 28 -76 10 -89 -10 -8 -15 -17 -12 -21 4 -4 14 0 22
8 19 20 57 119 45 119 -6 0 -13 -13 -16 -30 -4 -16 -10 -30 -14 -30 -5 0 -11
14 -15 30 -4 17 -11 30 -17 30 -6 0 -7 -8 -3 -17z"/>
<path d="M1010 865 c0 -25 5 -45 10 -45 6 0 10 20 10 45 0 25 -4 45 -10 45 -5
0 -10 -20 -10 -45z"/>
<path d="M1343 865 c0 -27 2 -38 4 -22 2 15 2 37 0 50 -2 12 -4 0 -4 -28z"/>
<path d="M1810 876 c0 -40 15 -55 52 -53 26 2 28 5 28 45 0 23 -4 42 -10 42
-5 0 -10 -15 -10 -34 0 -20 -6 -36 -14 -39 -20 -8 -26 2 -26 40 0 18 -4 33
-10 33 -5 0 -10 -15 -10 -34z"/>
<path d="M2303 865 c0 -27 2 -38 4 -22 2 15 2 37 0 50 -2 12 -4 0 -4 -28z"/>
</g>
</svg>
